/* XPM */
static char * quake2ctf_xpm[] = {
"32 32 12 1",
" 	c None",
".	c #B70C0C",
"+	c #C51212",
"@	c #BC0E0E",
"#	c #BA0D0D",
"$	c #808000",
"%	c #B80C0C",
"&	c #000000",
"*	c #FFFF00",
"=	c #0E24B2",
"-	c #C6C4C4",
";	c #FFFFFF",
".......................+        ",
".......................@        ",
".......................#        ",
".............$$$$$$$$$.%        ",
".........&&.$$******$...        ",
".......&...$$******$....        ",
".....&&.&&$$*****$$.....        ",
"....&.&&&$$****$$.&.....        ",
"...&.&&&.$***$$$.&.&....======= ",
"...&.&&$$$$$$$$$$$$$$...======= ",
"..&.&&$$$$$$$$$****$....&&&==== ",
"..&.&$$$$$$$$$$***$.&...==&&=== ",
"..&.&&&&&&&&.$$$$$..&...&&=&&== ",
"..&.&&&&&&&.$$$$$.&.&...&&&=&&= ",
"...&.&&&&&.$$$$..&......&&&&=&= ",
"...&.&&&&.$$$$.&&..&....&&&&=&& ",
"....&.&&&$$$$.&&..&.....&&&&&=& ",
".....&...$$$&&&..&......-&&&&=& ",
"......&.$$......&.......;-&&&=& ",
".......$$.&&&&..........;-&&&=& ",
"......$$................;-&&=&& ",
"........................-&&&=&= ",
"........................&&&=&&= ",
"........................&&=&&== ",
"        =====&&-;;;-&&====&&=== ",
"        ====&&--;;-&&==&&&&==== ",
"        ===&&--;---&&&&&======= ",
"        ===&&-----&&=========== ",
"        ===&&&&--&&&=========== ",
"        ======&&&&&============ ",
"        ========&&============= ",
"                                "};
