/* XPM */
static char * quake2_xpm[] = {
"32 32 83 1",
" 	c None",
".	c #000000",
"+	c #212129",
"@	c #315A39",
"#	c #000800",
"$	c #293931",
"%	c #4A5A5A",
"&	c #395A39",
"*	c #080810",
"=	c #103131",
"-	c #31524A",
";	c #4A8C6B",
">	c #211818",
",	c #292921",
"'	c #082108",
")	c #213139",
"!	c #313139",
"~	c #295242",
"{	c #213931",
"]	c #4A735A",
"^	c #292129",
"/	c #637B6B",
"(	c #315A4A",
"_	c #294A4A",
":	c #182921",
"<	c #4A947B",
"[	c #395239",
"}	c #5A8C7B",
"|	c #101810",
"1	c #080818",
"2	c #395A42",
"3	c #214229",
"4	c #397B4A",
"5	c #31634A",
"6	c #313939",
"7	c #213939",
"8	c #525252",
"9	c #5A6B6B",
"0	c #314A42",
"a	c #425A52",
"b	c #213118",
"c	c #394239",
"d	c #294231",
"e	c #101000",
"f	c #295A42",
"g	c #395252",
"h	c #426B5A",
"i	c #183121",
"j	c #101818",
"k	c #396352",
"l	c #526B5A",
"m	c #314239",
"n	c #182110",
"o	c #292931",
"p	c #102129",
"q	c #424239",
"r	c #7B948C",
"s	c #397363",
"t	c #315231",
"u	c #425A42",
"v	c #425239",
"w	c #316B5A",
"x	c #213131",
"y	c #213929",
"z	c #293942",
"A	c #4A7363",
"B	c #5A736B",
"C	c #73847B",
"D	c #39736B",
"E	c #102110",
"F	c #5A9C8C",
"G	c #101010",
"H	c #213129",
"I	c #295239",
"J	c #313931",
"K	c #181008",
"L	c #396B42",
"M	c #5A6B5A",
"N	c #21314A",
"O	c #394A42",
"P	c #395A4A",
"Q	c #183929",
"R	c #082110",
"................................",
"...........+.........@..........",
"..........#.....................",
".........$.............#........",
"........%...............&.......",
".......*.................=......",
".......-.................;......",
"......>,.................#'.....",
"......)...................+.....",
"......!...................~.....",
"......{#..................].....",
"......-...................^.....",
"......+/.................(_.....",
"......:<.................[}.....",
"......|12....3456578....90......",
".......ab.....cd.ef.....gh......",
".......#d+....{i.jk...._lm......",
"........no+...mp.+@..qehr.......",
"..........>ns.+t.uvtw0t.........",
"..........xynm>:+:zjABC.........",
".............Di+:E$F]...........",
"..............+>Gxd.............",
"..............>H.IJ.............",
"..............pK.3L.............",
"..............cm.HM.............",
"..............Nj.O-.............",
"...............g.Pj.............",
"...............2.Q..............",
"...............c.R..............",
"...............n.#..............",
"................................",
"................................"};
